<svg width="21" height="21" viewBox="0 0 21 21" fill="none" xmlns="http://www.w3.org/2000/svg">
<path d="M19.3221 8.12047H12.9151V1.71349C12.9151 0.927303 12.2775 0.28972 11.4914 0.28972H10.0676C9.28142 0.28972 8.64383 0.927303 8.64383 1.71349V8.12047H2.23685C1.45066 8.12047 0.81308 8.75806 0.81308 9.5442V10.9681C0.81308 11.7542 1.45066 12.3917 2.23685 12.3917H8.64383V18.7988C8.64383 19.585 9.28142 20.2225 10.0676 20.2225H11.4914C12.2775 20.2225 12.9151 19.585 12.9151 18.7988V12.3917H19.3221C20.1083 12.3917 20.7459 11.7542 20.7459 10.9681V9.5442C20.7459 8.75806 20.1083 8.12047 19.3221 8.12047Z" fill="white"/>
</svg>
